# xmcd
#
# Track frame offsets:
#	150
#	12192
#	19405
#	39807
#	53970
#	69332
#	88172
#	93132
#	108007
#	112167
#
# Disc length: 1815 seconds
#
# Revision: 1
# Processed by: cddbd v1.5PL3 Copyright (c) Steve Scherf et al.
# Submitted via: CDex 1.50Beta5
#
DISCID=7407150a
DTITLE=Petset - Sound-Sphere
DYEAR=2002
DGENRE=Pop
TTITLE0=The Modern Adventure
TTITLE1=Blackbird
TTITLE2=Nostalgia For The Sky
TTITLE3=Timeless Words
TTITLE4=Something Vague
TTITLE5=Windy Walk
TTITLE6=Sounds and Colours
TTITLE7=Future Days
TTITLE8=September
TTITLE9=Never-Never Land
EXTD=
EXTT0=
EXTT1=
EXTT2=
EXTT3=
EXTT4=
EXTT5=
EXTT6=
EXTT7=
EXTT8=
EXTT9=
PLAYORDER=
